<?xml version="1.0" encoding="utf-8"?>
<!-- Generator: Adobe Illustrator 23.0.2, SVG Export Plug-In . SVG Version: 6.00 Build 0)  -->
<svg version="1.1" id="Calque_1" xmlns="http://www.w3.org/2000/svg" xmlns:xlink="http://www.w3.org/1999/xlink" x="0px" y="0px"
	 viewBox="0 0 302 260" style="enable-background:new 0 0 302 260;" xml:space="preserve">
<style type="text/css">
	.st0{fill:#D1D706;}
	.st1{fill:#1B3762;}
</style>
<g>
	<path class="st0" d="M123.8,186.4c-0.6-0.6-0.4-2.5,0-2.9c2.7-0.2,6.1-0.8,8.4-1.2c4.7-1,5.3-3.7,5.7-8c0.4-4.5,0.6-36.4,0.6-51.8
		c0-13.9,0-28.2-0.4-36.8c-0.6-4.5-0.4-8.4-4.7-9.4c-2-0.6-5.5-1-10-1.6c-0.6-0.4-0.2-2.5,0.2-2.7h39.3c0.4,0.6,0.6,2.3,0.2,2.7
		c-2.9,0.4-5.9,0.8-7.6,1c-4.1,1-4.9,3.9-5.1,9.6c-0.4,7.8-0.6,26.2-0.6,42.4c0,17.4,0.2,38.1,0.2,44.2c0.4,5.7,1,8.8,5.5,10.2
		c2.7,0.8,5.9,1.2,9.4,1.6c0.6,0.6,0.2,2.5-0.2,2.9h-40.9V186.4z"/>
	<path class="st1" d="M262,186.4c-6.5,0.4-19.4-0.6-25-3.1c-2.7-1-5.1-2.9-8.6-6.8c-7-7.6-19.6-29.5-27.2-39.5
		c-1.4-2.3-3.1-3.1-4.3-3.1c-2,0-12.7,0-16.2,0.2v-5.1c6.3,0.4,21.1,0.4,24.6-0.8c6.3-2.3,14.9-8.8,14.9-24.6
		c0-3.9-0.6-7.4-1.4-10.6c-2.5-11.3-14.7-21.1-42.1-21.1c5.5,0,22.5,0,24.6,0c20.9,0,31.1,12.9,31.1,27.8c0,16.4-11,25-21.5,29.7
		c-0.4,0.4-0.4,0.8-0.2,1c7.2,11.7,22.5,34.2,31.1,42.6c9,8.8,12.3,9.8,20.7,10.6C262.6,184,262.4,186.2,262,186.4"/>
	<path class="st1" d="M39.9,71.9c-0.4,0.4-0.6,2.5,0,2.7c2.5,0.4,7.2,0.8,9.2,1.6c4.1,1.4,4.1,5.1,4.3,10c0.4,9.6-0.2,58.5,1,69.4
		c2.7,22.5,17,31.1,43,31.1c2.5,0,4.9-0.2,7.2-0.4c-20.7-0.4-37.4-14.3-38.5-35c-0.2-1.8-0.4-3.7-0.6-5.7c-0.4-9.8-0.6-43.6,0-58.9
		c0.4-7.8,1.2-9.2,4.5-10.4c2.3-0.8,4.1-1,7.8-1.6c0.4-0.4,0.4-2.5,0-2.7C77.8,71.9,39.9,71.9,39.9,71.9z"/>
	<g>
		<g>
			<path class="st0" d="M125.5,30.7c0,0.2,0,0.4-0.2,0.4h0.2c0.4-0.4,1.4-1.2,1.4-1.2c-0.2,0-0.4,0.2-0.4,0.2c0-0.2-0.2-0.2-0.2-0.4
				c0.2-0.6,0.2-0.6,0.2-0.6h-0.2c0,0,0,0,0-0.2c-0.4,0.6-0.8,1.2-1,2C125.3,30.9,125.3,30.9,125.5,30.7z"/>
			<path class="st0" d="M126.7,29.3C126.7,29.3,126.9,29.3,126.7,29.3c0-0.2,0-0.4,0-0.4v-0.2c0.2,0,0.4,0,0.4,0.2
				c0.4,0,0.6-0.2,0.8-0.4c0,0.2,0,0.2-0.8,1.2c0,0.2,0.2,0.2,0.4,0.2c0.2,0,0.2-0.2,0.4-0.2l-0.2,0.2h0.2c0,0.2,0.2,0.2,0.4,0.2
				c0.4-0.4,0.4-0.4,0.2-1.2c-0.2,0-0.2-0.2-0.4-0.2c0.6-0.8,0.6-0.8,0.4-2c-0.4-0.2-0.4-0.2,0-1c-0.8,0.8-1.6,1.8-2.3,2.9
				C126.5,28.9,126.5,29.1,126.7,29.3z"/>
			<path class="st0" d="M130.6,55.9c0.6-1-1-2.5,0.4-3.1c0,0,0-0.2,0.2-0.2c0.6-0.2,0.8-0.2,0.4-2c-0.2-0.8,0.6-1.4,0.6-2.3
				c0-0.4,0-0.4-1.4-1.4c-0.8-0.6-2.3,0-2.7-1.2c-0.4-1.4-0.8-1.4-2-1.6c-0.2-0.4-0.2-0.4-0.6-0.6c0-0.6,0-0.6,0-0.8
				c-0.2,0-0.4,0-0.4,0l0,0l0,0l0,0l0,0l0,0l0,0l0,0l0,0c-0.6,0.4-0.6,0.4-1.4-0.6l0,0c0.6,5.3,3.3,10.2,7.2,13.5l0,0
				C130.4,55.9,130.6,55.9,130.6,55.9z"/>
			<path class="st0" d="M131,25c0.2,0,0.4-0.2,0.4-0.2l0,0c-0.2,0.2-0.2,0.2-0.2,0.2s0,0,0.2,0.2l0.6-0.4l0,0c0,0,0,0,0-0.2
				c0.2,0,0.2,0,0.2,0l0.2-0.2l1-1l0,0l0,0l0,0l0,0l0,0l0,0l0,0l0,0c0,0,0.6,0,1-0.2c0.4-0.2,0.6-0.6,1.2-0.8c0.4,0,0.8-0.2,1.4-0.6
				l0,0c0,0-0.4,0-0.6,0c0.2-0.4,0.2-0.4,0.2-0.4s0,0,0,0.2c0.2,0.4,0.4,0.2,0.4,0.2c0.2-0.2,0-0.6,0.2-0.8c0-0.2,0-0.4,0.2-0.4
				c0-0.2,0.2,0,0.4-0.2l0,0l0,0c-2.5,0.8-4.9,2-7,3.7c0,0.8,0,0.8-0.2,0.8C130.8,24.6,131,25,131,25z"/>
			<path class="st0" d="M136.1,23.6c0,0,0,0.2,0.2,0.6c0.6,0.2,0.8,0.2,0.8,0.2c0.4-0.2,0.4-0.2,0.4-0.2s0-0.2,0.2-0.2
				c0,0,0-0.2,0.2-0.4l0,0c-0.2-0.6-0.2-0.6-0.2-0.6s-0.2,0-0.6,0.2c-0.2,0-0.4,0.2-0.4-0.2c-0.4,0-0.6,0.2-0.6,0.2
				C135.9,23.6,136.1,23.6,136.1,23.6z"/>
			<path class="st0" d="M150,34.4L150,34.4L150,34.4c0.2-0.2,0.2-0.2,0.2-0.4l0,0l0,0l0,0H150l-0.2,0.2c-0.2,0,0,0.2,0,0.2
				C149.6,34.4,149.6,34.6,150,34.4z"/>
			<path class="st0" d="M147.4,34.4L147.4,34.4c0,0,0.2,0,0.2,0.2l0,0l0,0l0,0l0,0h0.2l0,0l0,0l0,0h-0.2l0,0
				C147.8,34.2,147.8,34.2,147.4,34.4C147.6,34.2,147.6,34.2,147.4,34.4C147.6,34.2,147.6,34.2,147.4,34.4
				C147.6,34.2,147.4,34.2,147.4,34.4C147.2,34.2,147.2,34.2,147.4,34.4C147.2,34.4,147.2,34.4,147.4,34.4
				C147.2,34.4,147.4,34.4,147.4,34.4z"/>
			<path class="st0" d="M144.3,33.6L144.3,33.6L144.3,33.6c0.2,0.2,0.2,0.2,0.4,0.2l0,0c0,0,0.2,0.2,0.2,0v-0.2c0,0,0,0,0-0.2
				c0-0.2,0-0.2,0-0.2l0,0l0,0c0,0,0,0-0.2,0c0,0,0,0-0.2,0l0,0C144.3,33.4,144.3,33.4,144.3,33.6C144.3,33.4,144.3,33.4,144.3,33.6
				v-0.2c0,0,0,0-0.2,0C144.1,33.4,144.1,33.4,144.3,33.6c-0.2-0.2-0.2,0-0.2,0l0,0C144.1,33.6,144.1,33.6,144.3,33.6z"/>
			<path class="st0" d="M142.9,32.6v0.2c0,0.2,0,0.2,0,0.2c0,0.2,0.2,0,0.2,0s0,0,0-0.2c0,0,0,0,0.2-0.2c0,0,0,0,0-0.2l0,0l0,0
				c0,0-0.2,0-0.2-0.2V32l0,0c0,0,0,0-0.2,0c0,0,0,0-0.2,0C142.7,32.4,142.7,32.4,142.9,32.6C142.7,32.4,142.7,32.6,142.9,32.6z"/>
			<path class="st0" d="M143.1,32.2C143.1,32,143.1,32,143.1,32.2C143.1,32,143.1,32,143.1,32.2c0-0.2,0-0.2,0-0.2l0,0v-0.2l0,0l0,0
				c0,0,0,0,0,0.2l0,0V32.2C142.9,32.2,143.1,32.2,143.1,32.2z"/>
			<path class="st0" d="M153.3,49.4l-0.2,0.2c-0.2,0.2-0.2,0.4-0.4,0.6s-0.4,0.2-0.4,0.2s-0.2,0-0.4,0.4c0,0,0,0,0,0.4
				c0,0,0,0-0.2,0.4c0,0.2-0.2,0.2-0.4,0.4l0,0v0.2c0,0,0,0,0,0.2c0,0.2,0,0.2,0,0.2s0.2,0.2,0.4,0.2l0.6-0.2l0.2-0.4V52l0.2-0.2
				c0.4-0.4,0.4-0.6,0.4-0.8c0.2-0.2,0.2-0.2,0.2-0.4v-0.2v0.2l0,0l0.2-0.6L153.3,49.4C153.5,49.4,153.3,49.4,153.3,49.4z"/>
			<path class="st0" d="M161.3,42.8L161.3,42.8C161.1,42.8,161.1,42.8,161.3,42.8c0,0.2,0,0.2,0,0.2l0,0l-0.2,0.6V44c0,0,0,0,0.2,0
				c0.2-0.2,0.2-0.2,0.2-0.2v-0.2v-0.4C161.5,43.2,161.3,42.8,161.3,42.8z"/>
			<path class="st0" d="M151.3,47.3c0.2-0.2,0.2-0.4,0.4-0.6l0,0c0,0,0.4,0,0.6-0.4c0.2-0.2,0.2-0.4,0.4-0.6c0.4-0.4,0.8-0.4,1-0.8
				c0.2-0.4,0.2-0.4,0.4-0.8c0-0.2,0.2-0.4,0.4-0.8l0.2-0.6c0-0.2,0-0.4-0.2-0.2l-0.2,0.2c0,0-1.2,0.4-1.4,0.4l-0.2-0.4v-0.2
				c0-0.2-0.2-0.4-0.2-0.6c0,0-0.2-0.4-0.4-0.4c-0.2,0-0.2,0-0.2-0.2c0,0,0,0,0-0.4l-0.8-2c0,0,0,0-0.8-1.8c0,0,0.4-0.2,0.6,0
				c0.2,0.4,0.2,1,0.6,1.2c0.2,0,0.2,0,0.4,0.2c0.2,0.2,0,0.6,0.2,0.8l0,0c0.8,1,0.8,1,1,2.3c0,0.2,0.2,0.4,0.2,0.4l0,0l0,0
				c0-0.2,0.2-0.2,0.2-0.2c0.2,0,0.4,0,0.4-0.2c0.4-0.2,1-0.2,1.2-0.6v-0.2c0.2-0.2,0.6,0,0.8-0.2c0.2-0.6,1-1,1-1.8
				c0-0.6-0.6-0.6-0.8-1l0,0l0,0l0,0l0,0l0,0l0,0l0,0l0,0c-0.4,0.2-0.6,0.6-1,0.8c-0.2-0.2-0.2-0.4-0.2-0.6l0,0c0,0.2,0,0.2,0,0.4
				c-0.2-0.4-0.4-1-0.8-1.6c0,0,0.2-0.2,0.4-0.2c0.2,0.4,0.6,1.6,1.6,1c0.4,0.2,0.6,0.8,1,0.6c0,0,1,0,1.2,0s0.2,0,0.4,0.6h0.2
				c0.4,0.4,0.4,0.4,0.6,0.2c0,0.2-0.4,0.2-0.2,0.4c0,0,0.2,0.6,0.6,0.4c0.2,0,0.2-0.2,0.2-0.4v-0.2v0.2c0,1.4,0,1.4,0.4,2.9
				c0,0.2,0,0.2,0,0.2l0,0c0,0.2,0.2,0.2,0.2,0.4c0,0.2,0,0.6,0.2,0.8v0.2c0,0,0,0,0.2,0l0,0l0,0c0,0,0,0,0.2,0v-0.2l0.2-0.2
				c0-0.2,0-0.2,0-0.4c0-0.2,0.2-0.2,0.2-0.4v-0.2c0-0.2,0-0.6,0.4-1l1-1.8c0,0,0,0,0.2,0s0.4-0.2,0.6-0.4c0.2,0.8,0.2,0.8,0.4,1
				c0,0,0,0.2,0,0.4l0,0c0.2,0.4,0,0.6,0,1l0,0c0,0,0-0.2,0.2-0.2l0,0c0-0.2,0-0.2,0.2-0.2l0,0c0.2,0.4,0,0.8,0,1c0,0.4,0,0.6,0,0.8
				l0,0c0,0.2,0,0.2,0,0.4c0,0.2-0.2,0.2-0.2,0.4v0.2l0,0l0,0l0,0c0,0.2,0.2,0.4,0,0.6c0,0.6,0,1,0,1c0,0.2,0.2,0.4,0.2,0.4
				s0,0,0.2-0.2l0,0l0,0c0-0.6,0-0.6,0-0.8c0-0.2,0-0.2,0-0.6l-0.8-0.8v-0.6c0-0.2,0.2-1.2,0.2-1.2l0,0l0,0c0,0.2,0,0.2,0,0.2
				s0,0,0.2,0c0,0.2,0,0.4,0,0.6l0,0c0,0,0,0,0,0.2c0,0,0,0,0.2,0c0,0,0,0,0,0.2c-0.2,0.4,0,0.2,0,0.2l0,0c0,0,0-0.2,0.2-0.2l0,0
				c0.2-0.8,0.2-1.8,0.2-2.7c0-0.4-0.2-0.8,0-1c-0.4-8.2-5.3-15.1-12.5-18.4c0,0,0.2,0.2,0.4,0.4l0,0c-0.4-0.4-0.4-0.6-0.4-0.6l0,0
				c0,0,0,0-0.2,0.2c0,0.2,0.4,0.4,0.4,0.6s0,0.2,0.2,0.6l0,0h-0.2l0,0c0-0.2,0-0.2-0.8-1.4l-0.2-0.2c-0.4-0.2-0.8-0.2-1.2-0.4
				c0,0.2,0.4,0.4,0.4,0.6c0.2,0,0.6,0.2,0.8,0.6c0,0,0,0-0.2,0c-0.4-0.4-1.8-0.8-1.8-0.8l0,0c0.2,0.2,0.8,0.2,0.8,0.8l0,0
				c0-0.2-0.2-0.2-0.2-0.2c-0.2,0-0.2,0.2-0.4,0.2c0,0,0,0,0,0.2l0,0c0,0,0,0,0-0.2c-0.2-0.2-0.2-0.2-0.4,0c0,0,0,0,0,0.2
				c0,0,0,0-0.2,0l0,0c0,0,0,0,0,0.2c0,0,0,0.2,0,0.4v-0.2c0,0,0,0-0.2,0.2c0,0,0,0,0,0.4c-0.2,0-0.4,0-0.6-0.2c0,0,0,0,0.2-0.2
				c0-0.2-0.2-0.2-0.2-0.2c-0.2,0-0.2,0-0.4,0c0,0,0,0,0.2,0.2c0,0,0,0,0.2,0.4c0,0,0,0,0.4,0.4c-0.2,0-0.2,0-0.4,0
				c0,0-0.2,0.2-0.2,0.4c0.2,0.4,0.2,0.4,0.2,0.4l0,0c-0.2,0-0.6-0.4-0.6-0.4c-0.2,0.2-0.2,0.2,0.4,0.4l0,0c0,0-0.4,0.2-0.6-0.4
				l-0.6-0.6c0,0-0.2,0-0.4-0.2c-0.2-0.2-0.2-0.2-0.2-0.4c0.4,0,0.6,0.4,1.2,0.4c0.4,0,0.4-0.4,0.4-0.6c-0.2-0.2-0.4-0.2-0.4-0.4
				c-0.2,0-0.2,0-0.2,0l-1.2-0.4c0,0,0,0-0.2-0.2c0,0,0,0,0,0.2l0,0c-0.2,0-0.2,0-0.4-0.2c0,0,0.2,0,0.2-0.2s-0.2-0.2-0.6,0
				c0-0.2,0-0.2,0-0.2c-0.2-0.2-0.2,0-0.2,0.2c0,0,0,0-0.2,0c0,0,0,0,0,0.2c0-0.2,0-0.2,0-0.4l0,0c-0.2,0-0.2,0.2-0.4,0.2
				c0,0.2,0,0.2-0.2,0.2l0,0l0,0c-0.2,0-0.2,0-0.4,0c0,0.2,0,0.2,0,0.2l0,0l0,0l0,0l0,0l0,0l0,0c-0.2,0-0.2,0-0.2,0v0.2l0,0l0,0
				c-0.2,0-0.2,0-0.2,0.2c0,0,0,0,0,0.2c-0.4,0.2-0.4,0.2-0.4,0.4c0,0,0,0,0.6-0.2c0,0.2-0.2,0.6-0.2,0.6c0,0.4-0.2,0.6-0.2,0.8
				c0,0,0,0-0.2,0c0,0,0,0,0.2,0l-0.2,0.4c-0.2,0-0.4,0-0.4,0.4c-0.2,0.2-0.4,0.2-0.6,0.2l0,0c0,0,0,0,0,0.2l0,0c0,0,0,0,0,0.2
				s0.2,0.2,0.2,0.2l0,0l-0.2,0.2c-0.4,0.4-0.4,0.6-0.4,0.6l0,0C141.4,26,142,26,142,26c0.4,0,0.6-0.2,0.8-0.6c0,0,0,0,0.2,0.4
				c0,0.2,0.2,0.4,0.2,0.4c0,0.2,0,0.2,0.2,0.2l0,0c0,0,0,0,0,0.2c0,0,0,0,0,0.2c0,0,0,0,0,0.2c0,0,0,0,0.2,0c0,0,0.2,0,0.2-0.2
				c0,0,0-0.2,0.2-0.2c0,0,0,0,0.2,0l0,0l0,0c0,0,0,0,0-0.2c0,0,0,0,0-0.2l0,0c0-0.2-0.2-0.4,0-0.6c0-0.2,0.4-0.2,0.4-0.4
				c0,0,0-0.2-0.4-0.4c0,0,0,0-0.2-0.8c0.6-0.6,0.6-0.6,0.6-0.8c-0.2-0.2,0-0.6,0.2-0.6c0,0,0.4,0,0.4,0.2s-0.4,0.8-0.4,0.8
				s-0.2,0-0.2,0.2c0,0.8,0.2,1,0.6,1.2l1.2-0.2l0,0h0.2l0,0c-0.2,0-0.2,0-0.2,0s0,0-0.2,0.2c-0.2,0-0.6,0-0.8,0v0.2
				c-0.2,0-0.2,0-0.2,0c0,0.2,0,0.4,0,0.4l0.4-0.2l0,0c0,0.2,0,0.4,0,0.4s0,0-0.2,0l0,0c-0.2,0-0.2-0.2-0.2-0.2
				c-0.2,0-0.2,0.2-0.2,0.2l0,0c0,0.2,0.2,0.4,0.2,0.6c0,0,0,0-0.2,0.2c0,0.2-0.4,0-0.6,0s-0.4,0.2-0.8,0.4c0,0,0,0-0.2-0.4
				c-0.2,0-0.4,0.2-0.4,0.2v-0.2c-0.2,0-0.2,0-0.4-0.2l0,0c0.6,0.2,0.6,0.2,0.6,0c0,0,0,0,0-0.2c-0.2-0.2-0.4,0.2-0.2,0.2
				c0,0,0,0,0.2,0.2l0,0c-0.2,0-0.4-0.2-0.2-0.4c0,0,0.2,0,0.2-0.2c0,0-0.2,0-0.2-0.2l0,0v-0.2c0,0,0,0,0-0.2l0,0c0,0,0,0-0.2,0.2
				c0,0.2,0,0.2-0.2,0c0,0-0.2,0-0.2,0.2l0,0l0,0l0,0l0,0c0,0.2,0,0.2,0,0.4c0.2,0,0.2,0,0.2,0.2s0,0.2,0.2,0.2c0,0,0,0-0.2,0
				c0,0,0,0,0.2,0.2c-0.2,0.2-0.2,0.2-0.2,0.2c0-0.2-0.6,0-0.8,0.2c-0.4,0.4-0.6,1-1,1.2c0,0.2,0,0.2,0,0.2c-0.2,0-0.2-0.2-0.4-0.2
				c0,0,0,0.2,0,0.4c-0.2,0.2-0.6-0.2-0.8,0.2v0.2l0,0c0.2,0,0.4,0.2,0.6,0.2c0,0.4,0,0.4,0.2,0.4c-0.2,1-0.2,1-0.8,1
				c-1.4,0-1.4,0-1.4,0.2c0.2,0.2,0.2,0.4,0.2,0.6c-0.2,0.8-0.6,1-0.6,1.2c0,0.2,0.4,0.6,0.2,0.8c0.2,0,0.4,0,0.6,0s0.2,0.4,0.4,0.4
				c0,0,1-0.4,1.2-0.4s0.2,0,0.4-0.4h0.2c0-0.2,0-0.2-0.2-0.2c0-0.2,0.2-0.4,0.4-0.6c0.2-0.2,0.2,0,0.4-0.2c0-0.2,0-0.2,0-0.4
				c0.2-0.2,0.2-0.2,0.6-0.4c0.2,0.2,0.2,0.2,0.2,0.2c0.2-0.2,0.2-0.4,0.6-0.4c0.2,0,0.2,0,0.6,0.4c0.6,0.8,1.2,0.8,1.2,0.8
				c0,0.2,0,0.2,0.2,0.2l0,0c0.4,0.2,0,0.6,0.2,0.8c0,0,0.4-0.4,0.2-0.6c0,0-0.2-0.2,0-0.4c0.2,0,0.2,0,0.4,0.2l0,0c0,0,0,0,0-0.2
				c-0.2,0-0.8-0.4-0.8-0.4s0,0,0.2-0.2c-0.6-0.2-1-0.4-1.2-1l0,0c0-0.4,0.2-0.2,0.2-0.2c0.2,0.2,0,0.2,0.2,0.4c0,0,0,0,0.2-0.2
				c0.2,0.2,0.4,0.6,0.8,0.6l0,0l0,0c0.2,0.2,0.4,0.2,0.6,0.4c0,0.2-0.4,0.6,0,0.6l0,0l0,0l0,0l0,0l0,0l0,0l0,0l0,0
				c0.2,0.6,0.4,0.6,0.4,0.6c0,0.6,0.2,0.6,0.4,0.6c0,0,0,0,0,0.2l0,0c0-0.2,0.2-0.2,0-0.4h0.2l-0.2-0.2l0,0c0.2,0,0.2,0,0.2,0v-0.2
				l0.2,0.2c0-0.4-0.6-0.6-0.6-1c0.2,0,0.2,0.2,0.2,0.2s0.2,0,0.2-0.2l0,0l0,0l0,0l0,0l0,0l0,0l0,0l0,0v-0.2c0.2,0,0.4,0,0.6,0l0,0
				l0.6-0.2c0,0-0.2,0-0.2-0.2c0-0.4,0.2-0.6,0.2-0.8h0.2c0,0,0,0,0-0.2c0.2,0,0.2-0.2,0.4-0.4c0,0,0,0,0.2,0v0.2c0.2,0,0.4,0,0.4,0
				l0,0c-0.2,0.2-0.2,0.2-0.2,0.2l0,0c0,0,0,0,0.2,0c0.2,0.4,0.2,0.4,0.8,0v-0.2c-0.2,0-0.2,0-0.4,0c-0.4-0.6,0.8-0.6,0.8-0.8
				c0,0.2-0.2,0.2-0.2,0.2l0,0l0,0c0,0.2,0,0.2,0,0.2l0,0l0,0c0,0,0,0,0,0.2c0.2,0,0.2,0,0.2,0.2c0.2,0,0.2,0,0.4,0.2
				c0.8,0.6,0.8,0.6,1,0.8v0.2l0,0c-0.2,0.4-0.2,0.4-0.4,0.2c-0.2,0-0.2,0.2-0.4,0.2l-1-0.4c-0.6,0-0.6,0.2-0.6,0.4
				c-0.6,0-0.6,0-0.6,0s0,0,0.2,0l0,0H149l0,0h-0.2h-0.2c-0.2,0-0.2,0-0.2,0.2v0.2h0.2c0,0.2,0,0.2-0.2,0.4c0.2,0.2,0.6,0.6,0.6,0.6
				c0.2,0,0.2,0,0.2,0l0,0c0.2,0,0.2,0,0.4,0v-0.2c0.2,0,0.2,0.4,0.4,0.4c0.2,0,0.4-0.2,0.4-0.4c0.2,0,0.2,0,0.2,0s0,0,0.2,0
				c-0.2,0.6,0,1.2-0.4,1.8c-0.4,0.4-0.8,0-1.2,0.2c-0.2,0.2-1.8-0.4-1.8-0.4s-0.8-0.4-0.8,0.2c0,0.4-0.2,0.6-0.2,0.6s0,0-1-0.6
				c0-0.2,0-0.4-1-0.6c-0.2,0-0.4,0.2-0.6-0.2c-0.2-0.2,0.2-0.4,0.2-0.6c-0.2-0.2,0-0.4,0-0.8l0,0c0,0,0,0-0.2,0.2c0,0-1.6,0-2.3,0
				c-1,0.6-1.6,1.6-2.5,1h-0.2c0,0.2,0,0.2-0.2,0.4c-0.4,0.4-0.8,0.6-0.8,0.6v0.2c-0.4,0.2-0.2,0.8-0.6,1c-0.4,0.4-0.8,0.4-1.2,0.8
				c-0.2,0.2-0.2,0.4-0.2,0.6c-0.2,0.2-0.4,0.2-0.4,0.6s0.2,0.6,0.2,0.8c0,0.4,0.2,1,0,1.4c-0.2,0-0.2,0-0.4,0.4l0.2,0.2l0,0
				c0,0.2,0,0.4,0,0.6c0.2,0.2,0.6,0.4,0.8,0.6c0.2,0.2,0.2,0.6,0.4,0.8l1,0.8c0.2,0,0.2,0,0.4,0c0.4,0,0.6-0.2,0.8-0.2
				c0.4,0,0.6,0.2,1,0c0,0,0.2,0,0.4-0.2c0.4-0.2,0.8-0.4,0.8-0.4c0.4,0,0.4,0.6,0.6,0.6c0.4,0,0.6-0.2,0.8,0c0,0,0.2,0.2,0.2,0.4
				c-0.2,0.4-0.2,0.4-0.4,1c0,0-0.2,0-0.2,0.2c0.2,0.6,0.2,0.6,0.8,1l0.4,1v1c-0.2,0.4-0.4,0.6-0.6,1c0,0.2-0.2,0.4,0,0.6
				c0.2,0.4,0.4,0.6,0.6,0.8c0.2,0.4,0,0.8,0,1.4c0,0,0.2,0.4,0.4,0.8c0.2,0.4,0.2,0.8,0.4,1h-0.2c0,0.2,0,0.2,0,0.4l0,0l0,0
				c0,0,1.4,0,2.3-0.6c0.2-0.2,1-1.2,1-1.2l1.2-1.6c0-0.6,0-0.6,1.4-1.4c0.4-0.2,0.4-0.2,0.4-0.6l0,0c0-0.2,0-0.4,0-0.6s0-0.2,0-0.4
				c0,0,0,0,0-0.2c0,0,0,0,0-0.2c0-0.8,0-0.8,0-0.8 M147.6,25L147.6,25L147.6,25c-0.2,0.2-0.2,0.2-0.2,0.2l0,0l0,0V25l0,0l-0.2-0.2
				l0,0v-0.2l0,0l0,0c0,0,0,0,0.2,0.2C147.4,24.8,147.4,24.8,147.6,25C147.6,24.8,147.8,25,147.6,25C147.8,25,147.8,25,147.6,25z
				 M148.2,24.6L148.2,24.6C148,24.6,148,24.6,148.2,24.6c-0.2-0.2-0.2-0.2-0.2-0.2l0,0c0,0,0,0,0-0.2l0,0l0,0l0,0l0,0l0,0
				c0,0,0.2,0,0-0.2c0,0-0.2,0-0.2-0.2c0,0,0.2,0,0.4,0.2c0,0,0,0,0.2,0.2C148.2,24.4,148.2,24.4,148.2,24.6L148.2,24.6z
				 M155.1,30.3L155.1,30.3C155.3,30.3,155.3,30.3,155.1,30.3C155.3,30.1,155.3,30.1,155.1,30.3c0.2-0.2,0.2-0.2,0.2-0.2s0,0,0-0.2
				l0,0l0,0l0,0v0.2v0.2l0,0c0,0.4,0,0.4,0,0.4l0,0h-0.2c0,0,0,0-0.2-0.2C155.1,30.3,155.1,30.3,155.1,30.3z M152.7,30.3
				C152.7,30.3,152.9,30.3,152.7,30.3c0.2-0.2,0.2-0.4,0.4-0.4c0,0,0.2-0.2,0.4-0.2l0,0c0.2,0,0.2,0,0.4,0c0,0,0.4,0.4,0.2,0.6
				c-0.2,0-0.2-0.2-0.4,0c0,0,0.2,0.2,0,0.2l0,0l0,0l0,0l0,0l0,0l0,0l0,0c0.2,0.4,0.2,0.4,0.4,0.6c0.2,0,0.2,0.2,0.2,0.2v0.2
				l0.2,0.2c0,0,0,0,0,0.2c0,0,0,0.2,0.2,0.4l0,0l0,0l0.2,0.2c0,0,0,0,0,0.2c0.2,0.2,0.2,0.6,0.4,0.8l0,0c0,0-0.6,0-0.8,0l-0.6-0.2
				c-0.2-0.2-0.2-0.8-0.2-1c0,0,0.2,0,0.2-0.2c0,0,0,0-0.2-0.2l0,0c0,0-0.2-0.2-0.2-0.4l-0.2-0.2c-0.2-0.2,0-0.4-0.2-0.4l-0.2-0.2
				C152.7,30.7,152.7,30.5,152.7,30.3z"/>
			<path class="st0" d="M138.2,27.5L138.2,27.5C138.2,27.7,138.2,27.7,138.2,27.5c0,0.2,0,0.2,0,0.2s0,0,0.2,0l0,0l0,0l-0.2,0.4
				c0,0,0,0.2,0.2,0.2c0,0,0,0,0.2,0c0,0,0,0,0.2-0.2c0.2-0.2,0.2-0.2,0.2-0.2l0,0h0.2v-0.2c0,0,0,0,0-0.2l0,0v-0.2l0,0h0.2v-0.4
				h-0.2H139l-0.2,0.2c0,0.2,0,0.2-0.2,0.2C138.4,27.5,138.4,27.5,138.2,27.5L138.2,27.5L138.2,27.5C138.2,27.5,138,27.5,138.2,27.5
				C138,27.5,138.2,27.5,138.2,27.5L138.2,27.5z"/>
			<path class="st0" d="M139,26.4C139,26.4,139,26.2,139,26.4C139.2,26.4,139,26.4,139,26.4c0,0.2,0.2,0.2,0.2,0.2
				c-0.2,0.2,0,0.2,0,0.2s0,0,0.2,0c0,0.2,0,0.2,0,0.2c0.2-0.2,0.2-0.2,0.2-0.2c-0.2,0.2-0.2,0.2,0,0.4c0,0.2,0.2,0,0.2,0
				c0,0.2,0,0.2,0,0.2s0,0,0.2,0l-0.2,0.4c-0.2,0-0.2,0-0.2,0s0,0,0,0.2c0,0,0.2,0,0,0.2c0,0-0.4,0-0.2,0.2c0,0,0.2-0.2,0.2,0
				c0,0,0,0,0.2,0s0.2,0,0.2,0l0,0c-0.2,0-0.2,0.2-0.4,0.2c-0.4,0-0.6,0.4-0.6,0.4v0.2c0.2,0,0.2-0.2,0.2-0.2h0.2l0,0l0,0l0,0
				c0.2,0,0.2,0,0.2,0c0.2,0,0.2,0.2,0.4,0v-0.2c0.2,0,0.2,0,0.4,0c0.2,0,0.2,0,0.4-0.2l0,0h-0.2c0.6-0.6,0-0.6,0-0.6s0,0-0.2,0
				c0,0,0,0,0-0.2l-0.2-0.2l0,0c0,0,0,0-0.2-0.2c0,0,0-0.2-0.2-0.2c0-0.2-0.2-0.2-0.2-0.2s0,0-0.2,0c0-0.2,0.4-0.2,0.2-0.6
				c0-0.2-0.4,0-0.4-0.2s0.4-0.4,0.2-0.4c0,0,0,0.2-0.2,0.2H139C139,26,139,26.2,139,26.4c0,0.2-0.2,0.2-0.2,0s0.2-0.2,0-0.4
				c0,0-0.2,0-0.2,0.2C138.8,26.2,138.8,26.2,139,26.4C138.8,26.4,138.8,26.4,139,26.4z"/>
			<path class="st0" d="M163.9,47.5c0,0,0-0.2,0.2-0.4c0.2-0.4,0.2-0.6,0.2-1v-0.2c0,0,0,0,0-0.2c-0.2-0.2,0-0.4-0.2-0.4l0,0
				l-0.2-0.8l0,0c-0.2,0,0-0.2-0.2-0.4l-0.2,0.2l0.2,0.6c0.2,0.4,0.2,0.4,0.2,0.4c0,0.2,0,0.2,0,0.4c0,0.2,0,0.2,0,0.4
				c0,0.2-0.2,0.2-0.2,0.4c0,0,0,0.2,0,0.4C163.7,47.1,163.7,47.7,163.9,47.5C163.7,47.7,163.7,47.7,163.9,47.5L163.9,47.5z"/>
		</g>
		<g>
			<path class="st1" d="M144.3,61.4c-11.9,0-21.5-9.6-21.5-21.5s9.6-21.5,21.5-21.5s21.5,9.6,21.5,21.5S156.2,61.4,144.3,61.4z
				 M144.3,18.9c-11.5,0-20.9,9.4-20.9,20.9s9.4,20.9,20.9,20.9s20.9-9.4,20.9-20.9S155.8,18.9,144.3,18.9z"/>
		</g>
	</g>
</g>
<g>
	<g>
		<path class="st1" d="M49.1,203.9v3.5h-4.9v14.1h-3.5v-14.1h-4.9v-3.5H49.1z"/>
		<path class="st1" d="M64.4,204h3.5v17.6h-3.5v-7.3h-6.5v7.3h-3.5V204h3.5v6.7h6.5V204z"/>
		<path class="st1" d="M85,207.4H73.3v-3.5H85V207.4z M73.3,210.7H83v3.5h-9.7V210.7z M73.3,218H85v3.5H73.3V218z"/>
		<path class="st1" d="M100.3,221.5v-17.6h3.5v17.6H100.3z"/>
		<path class="st1" d="M122.9,221.5l-9.9-10.3v10.3h-3.5v-17.6h1.1l9.7,9.8v-9.8h3.5v17.6H122.9z"/>
		<path class="st1" d="M142.9,221.5l-9.9-10.3v10.3h-3.5v-17.6h1.1l9.7,9.8v-9.8h3.5v17.6H142.9z"/>
		<path class="st1" d="M167.4,212.7c0,5-4.1,9.1-9.1,9.1c-5,0-9.1-4.1-9.1-9.1c0-5,4.1-9.1,9.1-9.1
			C163.3,203.6,167.4,207.7,167.4,212.7z M152.8,212.7c0,3,2.5,5.5,5.5,5.5c3,0,5.5-2.5,5.5-5.5c0-3-2.5-5.5-5.5-5.5
			C155.3,207.2,152.8,209.7,152.8,212.7z"/>
		<path class="st1" d="M177.6,221.5l-8-17.6h3.9l4.6,10l4.6-10h3.9l-7.9,17.6H177.6z"/>
		<path class="st1" d="M196.3,203.9l8.3,17.6h-3.9l-5-10.7l-5.4,10.7h-3.9l9-17.6H196.3z"/>
		<path class="st1" d="M219.2,203.9v3.5h-4.9v14.1h-3.5v-14.1h-4.9v-3.5H219.2z"/>
		<path class="st1" d="M224.4,221.5v-17.6h3.5v17.6H224.4z"/>
		<path class="st1" d="M240.2,221.5l-8-17.6h3.9l4.6,10l4.6-10h3.9l-7.9,17.6H240.2z"/>
		<path class="st1" d="M266.1,207.4h-11.7v-3.5h11.7V207.4z M254.4,210.7h9.7v3.5h-9.7V210.7z M254.4,218h11.6v3.5h-11.6V218z"/>
	</g>
	<g>
		<path class="st1" d="M84.1,241c0,3.8-3.1,6.8-6.8,6.8c-3.8,0-6.8-3-6.8-6.8v-11.1h3.5V241c0,0.9,0.4,1.7,1,2.3
			c0.6,0.6,1.5,1,2.3,1s1.7-0.3,2.3-1c0.6-0.6,1-1.4,1-2.3h0v-11.1H84L84.1,241L84.1,241z"/>
		<path class="st1" d="M101.2,247.5l-9.9-10.3v10.3h-3.5v-17.6h1.1l9.7,9.8v-9.8h3.5v17.6H101.2z"/>
		<path class="st1" d="M107.8,247.5v-17.6h3.5v17.6H107.8z"/>
		<path class="st1" d="M123.5,247.5l-8-17.6h3.9l4.6,10l4.6-10h3.9l-7.9,17.6H123.5z"/>
		<path class="st1" d="M149.5,233.4h-11.7v-3.5h11.7V233.4z M137.8,236.7h9.7v3.5h-9.7V236.7z M137.8,244h11.6v3.5h-11.6V244z"/>
		<path class="st1" d="M158.4,233.4v14.1h-3.5v-17.6h6.9c2.9,0,5.3,2.4,5.3,5.3c0,2.1-1.3,4-3.1,4.8l3.5,7.5h-3.7l-3.3-7.1V237h1.4
			c1,0,1.8-0.8,1.8-1.8c0-1-0.8-1.8-1.8-1.8H158.4z"/>
		<path class="st1" d="M178,240.1c-0.6-0.1-1.7-0.4-2.7-1.1c-1.4-0.9-2.2-2.3-2.3-4c-0.1-1.4,0.4-2.6,1.3-3.6
			c1.3-1.4,3.2-1.7,4.1-1.7c2.6,0,4,0.9,5.3,1.8l0.6,0.4l-1.8,3l-0.6-0.4c-1.1-0.7-1.9-1.2-3.4-1.2c-0.2,0-1.1,0.2-1.6,0.7
			c-0.1,0.1-0.3,0.4-0.3,1c0,0.9,0.7,1.4,2.3,1.8c0.2,0.1,0.4,0.1,0.5,0.2c1.7,0.6,3,1.4,3.9,2.3c0.9,1,1.4,2.2,1.4,3.4
			c0,1.2-0.5,2.5-1.4,3.5c-1,1.2-2.5,1.8-4,1.8c-0.8,0-1.8,0-3.1-0.4c-1.6-0.5-3-1.4-4.2-2.7l2.6-2.4c1.9,2,3.9,2,4.7,2
			c1.5,0,1.9-1.3,1.9-1.8c0-1-1.1-1.8-2.9-2.5l-0.1,0L178,240.1z"/>
		<path class="st1" d="M189.8,247.5v-17.6h3.5v17.6H189.8z"/>
		<path class="st1" d="M211.8,229.9v3.5H207v14.1h-3.5v-14.1h-4.9v-3.5H211.8z"/>
		<path class="st1" d="M231.6,229.9l-5.7,11.1v6.5h-3.5v-6.5l-5.7-11.1h3.9l3.6,6.6l3.6-6.6H231.6z"/>
	</g>
</g>
</svg>
