<svg width="51" height="38" viewBox="0 0 51 38" fill="none" xmlns="http://www.w3.org/2000/svg">
<path d="M19.5132 2.72C19.5032 2.75 19.4932 2.8 19.4832 2.83C19.5032 2.83 19.5232 2.84 19.5332 2.84C19.6332 2.76 19.8332 2.57 19.8332 2.57C19.8032 2.58 19.7632 2.6 19.7332 2.61C19.7132 2.59 19.6832 2.55 19.6632 2.52C19.7132 2.39 19.7132 2.39 19.7232 2.37C19.7032 2.37 19.6832 2.36 19.6732 2.36C19.6732 2.35 19.6632 2.35 19.6632 2.34C19.5832 2.48 19.5032 2.62 19.4332 2.77C19.4532 2.75 19.4832 2.73 19.5132 2.72Z" fill="#D1D600"/>
<path d="M19.8032 2.40999C19.8132 2.39999 19.8232 2.37999 19.8332 2.36999C19.8232 2.35999 19.8132 2.33999 19.8032 2.32999C19.8132 2.31999 19.8132 2.29999 19.8232 2.27999C19.8532 2.28999 19.8932 2.29999 19.9232 2.30999C19.9732 2.28999 20.0132 2.23999 20.0632 2.20999C20.0532 2.26999 20.0532 2.26999 19.8732 2.48999C19.8932 2.50999 19.9232 2.53999 19.9532 2.54999C19.9832 2.53999 20.0132 2.51999 20.0432 2.51999C20.0332 2.53999 20.0232 2.55999 20.0032 2.56999C20.0232 2.56999 20.0432 2.55999 20.0532 2.55999C20.0632 2.58999 20.0932 2.60999 20.1232 2.61999C20.1932 2.53999 20.1932 2.53999 20.1632 2.36999C20.1332 2.35999 20.0932 2.33999 20.0732 2.31999C20.1932 2.12999 20.1932 2.12999 20.1632 1.88999C20.0832 1.83999 20.0832 1.83999 20.1532 1.64999C19.9732 1.84999 19.8132 2.06999 19.6732 2.29999C19.7332 2.31999 19.7632 2.35999 19.8032 2.40999Z" fill="#D1D600"/>
<path d="M20.6632 8.25C20.7932 8.04 20.4332 7.69 20.7332 7.59C20.7432 7.58 20.7532 7.56 20.7532 7.54C20.9032 7.52 20.9432 7.51 20.8532 7.11C20.8132 6.93 20.9732 6.79 20.9732 6.62C20.9632 6.51 20.9632 6.51 20.6532 6.29C20.4832 6.17 20.1832 6.31 20.0832 6.03C19.9832 5.73 19.8932 5.71 19.6332 5.67C19.5832 5.58 19.5832 5.58 19.4732 5.51C19.4632 5.38 19.4632 5.38 19.4532 5.36C19.4232 5.36 19.3832 5.36 19.3532 5.37C19.2032 5.45 19.2032 5.45 19.0532 5.25C19.0432 5.25 19.0432 5.26 19.0332 5.26C19.1732 6.45 19.7532 7.5 20.6132 8.25V8.24C20.6232 8.24 20.6432 8.24 20.6632 8.25Z" fill="#D1D600"/>
<path d="M20.7432 1.46C20.7832 1.46 20.8132 1.43 20.8532 1.43L20.8632 1.44C20.8232 1.46 20.8132 1.47 20.8032 1.5C20.8032 1.5 20.8032 1.5 20.8332 1.56L20.9532 1.45C20.9532 1.45 20.9532 1.44 20.9632 1.44C20.9632 1.43 20.9632 1.42 20.9632 1.41C21.0032 1.38 21.0032 1.38 21.0032 1.36L21.0432 1.3L21.2632 1.05C21.2632 1.05 21.3832 1.03 21.4632 0.989999C21.5532 0.939999 21.6132 0.839999 21.7232 0.819999C21.8232 0.799999 21.9132 0.779999 22.0532 0.669999V0.649999C22.0532 0.649999 21.9732 0.639999 21.9332 0.629999C22.0032 0.569999 22.0032 0.569999 22.0132 0.559999C22.0132 0.569999 22.0132 0.579999 22.0232 0.589999C22.0832 0.669999 22.1232 0.619999 22.1232 0.619999C22.1632 0.569999 22.1332 0.499999 22.1632 0.449999C22.1832 0.419999 22.1832 0.379999 22.2032 0.349999C22.2232 0.329999 22.2632 0.329999 22.2732 0.299999V0.289999V0.279999C21.7132 0.449999 21.2032 0.729999 20.7632 1.08C20.7432 1.24 20.7432 1.24 20.7332 1.26C20.6932 1.34 20.7332 1.45 20.7432 1.46Z" fill="#D1D600"/>
<path d="M21.8832 1.14999C21.9032 1.16999 21.9032 1.19999 21.9132 1.26999C22.0632 1.30999 22.0732 1.30999 22.1032 1.28999C22.1732 1.25999 22.1832 1.25999 22.2032 1.23999C22.2132 1.22999 22.2232 1.20999 22.2232 1.20999C22.2332 1.18999 22.2332 1.18999 22.2932 1.11999C22.2532 1.01999 22.2332 1.01999 22.2132 1.01999C22.2032 1.01999 22.1532 1.01999 22.0732 1.05999C22.0232 1.07999 21.9832 1.09999 21.9732 1.02999C21.8832 1.02999 21.8332 1.06999 21.8332 1.08999C21.8132 1.11999 21.8632 1.12999 21.8832 1.14999Z" fill="#D1D600"/>
<path d="M24.9132 3.53999C24.9232 3.52999 24.9332 3.52999 24.9332 3.51999C24.9332 3.50999 24.9332 3.50999 24.9332 3.49999C24.9332 3.48999 24.9432 3.47999 24.9432 3.46999C24.9432 3.45999 24.9432 3.45999 24.9432 3.45999C24.9332 3.45999 24.9332 3.45999 24.9232 3.46999C24.9132 3.46999 24.8932 3.46999 24.8832 3.46999C24.8732 3.46999 24.8332 3.48999 24.8332 3.49999C24.8032 3.51999 24.8132 3.53999 24.8132 3.53999C24.8132 3.53999 24.8532 3.56999 24.9132 3.53999Z" fill="#D1D600"/>
<path d="M24.3432 3.51C24.3532 3.51 24.3432 3.5 24.3432 3.51C24.3632 3.52 24.3732 3.53 24.3932 3.53C24.4032 3.53 24.4032 3.53 24.4132 3.52C24.4232 3.52 24.4332 3.52 24.4332 3.52C24.4432 3.52 24.4632 3.5 24.4732 3.5C24.4732 3.49 24.4632 3.49 24.4632 3.49H24.4532C24.4432 3.49 24.4332 3.49 24.4332 3.49C24.4232 3.49 24.4232 3.49 24.4232 3.48C24.4232 3.47 24.4232 3.47 24.3832 3.47C24.3832 3.48 24.3632 3.47 24.3432 3.47C24.3232 3.46 24.3032 3.49 24.3032 3.49C24.3132 3.5 24.3432 3.51 24.3432 3.51Z" fill="#D1D600"/>
<path d="M23.6432 3.33999C23.6532 3.34999 23.6632 3.34999 23.6732 3.35999C23.6732 3.35999 23.6832 3.35999 23.6832 3.36999C23.6932 3.37999 23.7032 3.37999 23.7232 3.38999C23.7232 3.38999 23.7732 3.41999 23.7832 3.40999C23.7832 3.39999 23.7832 3.36999 23.7832 3.34999C23.7832 3.33999 23.7832 3.33999 23.7832 3.32999C23.7932 3.30999 23.7932 3.30999 23.7932 3.27999C23.7932 3.26999 23.7932 3.26999 23.7932 3.26999C23.7932 3.26999 23.7732 3.26999 23.7732 3.27999C23.7732 3.27999 23.7732 3.27999 23.7432 3.28999C23.7332 3.28999 23.7232 3.29999 23.7232 3.29999C23.7132 3.29999 23.7132 3.29999 23.7132 3.29999C23.6932 3.29999 23.6932 3.29999 23.6832 3.30999L23.6432 3.29999C23.6332 3.28999 23.6232 3.29999 23.6232 3.29999C23.6132 3.30999 23.6232 3.31999 23.6132 3.31999C23.6132 3.32999 23.6032 3.33999 23.6032 3.33999C23.6132 3.33999 23.6332 3.32999 23.6432 3.33999Z" fill="#D1D600"/>
<path d="M23.3332 3.09999C23.3432 3.11999 23.3232 3.13999 23.3332 3.15999C23.3432 3.17999 23.3432 3.19999 23.3532 3.20999C23.3732 3.22999 23.3732 3.22999 23.3732 3.22999C23.3832 3.21999 23.3832 3.20999 23.3932 3.20999C23.4032 3.19999 23.4132 3.19999 23.4232 3.18999C23.4232 3.17999 23.4232 3.16999 23.4232 3.15999C23.4232 3.14999 23.4232 3.14999 23.4232 3.13999V3.12999C23.4232 3.10999 23.4032 3.10999 23.3932 3.09999C23.3932 3.08999 23.4032 3.07999 23.3932 3.06999C23.3832 3.05999 23.3832 3.04999 23.3732 3.04999C23.3632 3.04999 23.3532 3.04999 23.3432 3.05999C23.3332 3.06999 23.3332 3.06999 23.3132 3.06999C23.2932 3.06999 23.2932 3.08999 23.2932 3.08999C23.3132 3.08999 23.3232 3.08999 23.3332 3.09999Z" fill="#D1D600"/>
<path d="M23.4032 3.00001C23.4132 2.99001 23.4132 2.99001 23.4032 2.97001C23.4032 2.97001 23.4032 2.96001 23.4032 2.95001C23.4032 2.94001 23.4032 2.94001 23.4032 2.93001C23.4032 2.92001 23.4032 2.91001 23.4032 2.91001C23.3932 2.89001 23.3832 2.86001 23.3832 2.85001C23.3832 2.85001 23.3832 2.85001 23.3732 2.87001C23.3732 2.88001 23.3732 2.89001 23.3632 2.89001C23.3532 2.90001 23.3432 2.91001 23.3432 2.92001C23.3332 2.93001 23.3332 2.94001 23.3332 2.94001C23.3332 2.95001 23.3432 2.98001 23.3432 2.98001C23.3632 3.00001 23.3932 3.01001 23.4032 3.00001Z" fill="#D1D600"/>
<path d="M25.6632 6.79999L25.6032 6.84999C25.5532 6.88999 25.5432 6.95999 25.4932 6.98999C25.4332 7.03999 25.4132 7.03999 25.3832 7.03999C25.3732 7.03999 25.3432 7.04999 25.2932 7.11999C25.2932 7.11999 25.2832 7.13999 25.2932 7.19999C25.2932 7.21999 25.2932 7.21999 25.2432 7.30999C25.2232 7.34999 25.1832 7.36999 25.1632 7.40999V7.41999C25.1632 7.43999 25.1732 7.45999 25.1732 7.47999C25.1732 7.48999 25.1732 7.49999 25.1532 7.51999C25.1432 7.53999 25.1332 7.54999 25.1332 7.55999C25.1332 7.55999 25.1932 7.59999 25.2132 7.59999C25.2332 7.59999 25.3232 7.53999 25.3332 7.53999L25.3832 7.44999C25.3932 7.42999 25.3932 7.41999 25.4032 7.39999C25.4132 7.37999 25.4332 7.35999 25.4532 7.33999C25.5332 7.23999 25.5432 7.20999 25.5632 7.16999C25.5932 7.10999 25.5932 7.10999 25.6132 7.05999C25.6232 7.03999 25.6132 7.00999 25.6232 6.98999C25.6332 6.99999 25.6332 7.00999 25.6332 7.01999L25.6732 6.90999V6.79999C25.6832 6.80999 25.6732 6.79999 25.6632 6.79999Z" fill="#D1D600"/>
<path d="M27.3932 5.35999C27.3732 5.35999 27.3832 5.36999 27.3932 5.38999C27.3932 5.39999 27.4032 5.39999 27.3932 5.40999C27.3832 5.41999 27.3832 5.41999 27.3832 5.42999L27.3532 5.54998V5.62999C27.3532 5.63999 27.3532 5.63999 27.3832 5.64999C27.4232 5.61999 27.4332 5.60998 27.4332 5.58998C27.4332 5.57998 27.4332 5.55999 27.4332 5.55999C27.4332 5.54999 27.4332 5.47999 27.4332 5.47999C27.4332 5.46999 27.4132 5.35999 27.3932 5.35999Z" fill="#D1D600"/>
<path d="M25.2132 6.34999C25.2432 6.29999 25.2532 6.23999 25.2932 6.19999C25.2932 6.19999 25.3032 6.18999 25.3132 6.18999C25.3232 6.18999 25.3832 6.16999 25.4432 6.08999C25.4832 6.03999 25.5032 5.97999 25.5532 5.93999C25.6232 5.86999 25.7232 5.83999 25.7832 5.74999C25.8332 5.66999 25.8432 5.66999 25.8832 5.55999C25.9032 5.49999 25.9432 5.45999 25.9732 5.39999C25.9832 5.37999 26.0132 5.27999 26.0132 5.26999C26.0232 5.23999 26.0032 5.17999 25.9632 5.20999C25.9432 5.21999 25.9432 5.23999 25.9232 5.24999C25.9232 5.24999 25.6332 5.33999 25.6232 5.33999C25.6132 5.33999 25.5632 5.26999 25.5632 5.26999C25.5532 5.25999 25.5532 5.24999 25.5632 5.22999C25.5632 5.17999 25.5232 5.14999 25.5032 5.10999C25.4932 5.09999 25.4532 5.03999 25.4032 5.02999C25.3832 5.02999 25.3632 5.01999 25.3432 4.98999C25.3332 4.97999 25.3332 4.97999 25.3232 4.91999C25.3232 4.91999 25.1432 4.46999 25.1232 4.45999C25.1132 4.45999 25.1132 4.45999 24.9532 4.06999C24.9632 4.05999 25.0232 4.02999 25.0632 4.07999C25.1232 4.15999 25.1132 4.27999 25.2132 4.34999C25.2532 4.35999 25.2832 4.35999 25.3032 4.38999C25.3332 4.44999 25.3132 4.51999 25.3432 4.57999C25.3432 4.57999 25.3432 4.58999 25.3532 4.58999C25.5132 4.81999 25.5132 4.82999 25.5632 5.09999C25.5832 5.14999 25.6032 5.17999 25.6232 5.17999C25.6432 5.14999 25.6732 5.13999 25.6832 5.12999C25.7132 5.11999 25.7532 5.12999 25.7832 5.10999C25.8632 5.04999 25.9932 5.05999 26.0532 4.95999C26.0532 4.94999 26.0432 4.92999 26.0432 4.91999C26.0932 4.87999 26.1932 4.93999 26.2232 4.84999C26.2732 4.69999 26.4332 4.60999 26.4432 4.43999C26.4532 4.30999 26.2932 4.30999 26.2732 4.19999C26.2732 4.17999 26.2732 4.17999 26.2732 4.17999C26.1932 4.22999 26.1432 4.32999 26.0332 4.33999C26.0132 4.28999 26.0032 4.23999 25.9932 4.18999C25.9932 4.18999 25.9832 4.18999 25.9732 4.17999C25.9632 4.20999 25.9632 4.20999 25.9532 4.24999C25.8832 4.13999 25.8532 4.01999 25.7932 3.90999C25.8032 3.90999 25.8532 3.86999 25.8932 3.87999C25.9232 3.95999 26.0432 4.22999 26.2532 4.09999C26.3332 4.12999 26.3732 4.28999 26.4832 4.23999C26.4832 4.23999 26.7232 4.22999 26.7532 4.23999C26.7932 4.25999 26.7932 4.25999 26.8232 4.35999C26.8332 4.35999 26.8532 4.35999 26.8632 4.35999C26.9432 4.43999 26.9432 4.43999 26.9832 4.40999C26.9632 4.44999 26.9032 4.44999 26.9132 4.50999C26.9132 4.50999 26.9632 4.62999 27.0332 4.59999C27.0632 4.58999 27.0632 4.54999 27.0632 4.50999C27.0632 4.49999 27.0632 4.47999 27.0732 4.46999C27.0832 4.47999 27.0832 4.49999 27.0832 4.50999C27.0932 4.80999 27.1032 4.81999 27.1732 5.11999C27.1832 5.15999 27.1832 5.16999 27.1732 5.16999C27.1632 5.16999 27.1632 5.17999 27.1632 5.17999C27.1732 5.19999 27.1932 5.21999 27.1932 5.24999C27.2032 5.30999 27.2032 5.36999 27.2232 5.42999C27.2232 5.43999 27.2332 5.45999 27.2432 5.47999C27.2432 5.48999 27.2632 5.48999 27.2732 5.47999C27.2732 5.47999 27.2832 5.47999 27.2832 5.46999C27.2932 5.45999 27.2932 5.44999 27.3032 5.44999C27.3132 5.43999 27.3232 5.43999 27.3332 5.42999C27.3432 5.41999 27.3432 5.39999 27.3432 5.38999C27.3532 5.36999 27.3632 5.35999 27.3732 5.33999C27.3832 5.30999 27.3732 5.27999 27.3832 5.24999C27.3932 5.21999 27.4132 5.18999 27.4232 5.14999C27.4232 5.12999 27.4232 5.12999 27.4132 5.09999C27.4132 5.06999 27.4032 4.93999 27.5032 4.88999L27.7132 4.47999C27.7232 4.47999 27.7332 4.48999 27.7432 4.49999C27.8032 4.48999 27.8232 4.43999 27.8632 4.40999C27.9232 4.59999 27.9232 4.59999 27.9432 4.62999C27.9332 4.64999 27.9232 4.65999 27.9332 4.71999L27.9432 4.70999C27.9932 4.77999 27.9432 4.85999 27.9632 4.92999C27.9632 4.92999 27.9732 4.92999 27.9832 4.92999C27.9932 4.91999 28.0032 4.90999 28.0032 4.89999C28.0232 4.86999 28.0232 4.86999 28.0332 4.85999C28.0432 4.85999 28.0432 4.85999 28.0532 4.85999C28.0932 4.93999 28.0632 5.02999 28.0732 5.10999C28.0832 5.17999 28.0932 5.24999 28.0632 5.29999C28.0632 5.29999 28.0632 5.29999 28.0632 5.30999C28.0532 5.32999 28.0732 5.35999 28.0632 5.37999C28.0532 5.40999 28.0232 5.43999 28.0232 5.47999C28.0232 5.48999 28.0332 5.50999 28.0332 5.50999C28.0432 5.52999 28.0632 5.57999 28.0532 5.64999C28.0432 5.77999 28.0532 5.88999 28.0532 5.88999C28.0532 5.92999 28.0932 5.95999 28.1032 5.99999C28.1132 5.99999 28.1132 5.99999 28.1332 5.93999C28.1332 5.93999 28.1332 5.93999 28.1332 5.92999C28.1232 5.80999 28.1232 5.79999 28.1432 5.72999C28.1532 5.68999 28.1532 5.68999 28.1332 5.61999L28.0932 5.49999L28.0832 5.37999C28.0832 5.33999 28.1332 5.11999 28.1332 5.10999L28.1432 5.09999H28.1532C28.1532 5.13999 28.1632 5.14999 28.1632 5.15999C28.1732 5.16999 28.1832 5.16999 28.1832 5.17999C28.2032 5.21999 28.1932 5.25999 28.2032 5.29999C28.2032 5.30999 28.2132 5.30999 28.2132 5.31999C28.2132 5.32999 28.2032 5.33999 28.2132 5.33999C28.2232 5.34999 28.2332 5.33999 28.2332 5.33999C28.2532 5.33999 28.2432 5.35999 28.2232 5.39999C28.1832 5.47999 28.2232 5.45999 28.2432 5.43999C28.2432 5.43999 28.2432 5.43999 28.2432 5.42999C28.2532 5.40999 28.2632 5.38999 28.2732 5.36999C28.2732 5.36999 28.2732 5.36999 28.2732 5.35999C28.3032 5.16999 28.3132 4.96999 28.3132 4.76999C28.2932 4.68999 28.2832 4.60999 28.3132 4.52999C28.2332 2.72999 27.1432 1.18999 25.5832 0.479988C25.6032 0.499988 25.6232 0.519988 25.6632 0.559988L25.6532 0.569988C25.5732 0.489988 25.5532 0.469988 25.5432 0.459988H25.5332C25.5232 0.459988 25.5132 0.469988 25.5032 0.479988C25.5132 0.529988 25.5732 0.549988 25.5832 0.599988C25.5932 0.629988 25.5932 0.629988 25.6232 0.729988L25.6132 0.739988C25.5932 0.739988 25.5832 0.739988 25.5532 0.739988C25.5532 0.739988 25.5632 0.739988 25.5632 0.729988C25.5632 0.679988 25.5632 0.679988 25.3732 0.429988L25.3332 0.389988C25.2532 0.359988 25.1632 0.329988 25.0732 0.299988C25.0632 0.359988 25.1432 0.369988 25.1732 0.409988C25.2232 0.479988 25.3232 0.489988 25.3632 0.569988C25.3632 0.569988 25.3432 0.569988 25.3432 0.559988C25.2432 0.479988 24.9332 0.409988 24.9232 0.409988C24.9232 0.409988 24.9232 0.419988 24.9132 0.419988C24.9632 0.489988 25.0932 0.479988 25.0732 0.599988H25.0632C25.0432 0.559988 25.0332 0.549988 25.0132 0.549988C24.9732 0.549988 24.9532 0.589988 24.9232 0.599988C24.9232 0.609988 24.9132 0.619988 24.9132 0.629988H24.9032C24.8932 0.609988 24.8932 0.609988 24.9032 0.589988C24.8732 0.559988 24.8632 0.549988 24.8232 0.599988C24.8232 0.609988 24.8232 0.619988 24.8232 0.629988C24.8132 0.629988 24.8032 0.629988 24.7932 0.629988L24.7832 0.639988C24.7832 0.649988 24.7832 0.659988 24.7832 0.669988C24.7932 0.689988 24.7932 0.709988 24.7932 0.739988C24.7832 0.719988 24.7832 0.699988 24.7732 0.679988C24.7632 0.689988 24.7532 0.699988 24.7432 0.699988C24.7432 0.709988 24.7532 0.719988 24.7432 0.779988C24.6832 0.789988 24.6732 0.799988 24.6232 0.739988C24.6232 0.729988 24.6232 0.719988 24.6532 0.699988C24.6432 0.679988 24.5932 0.629988 24.5932 0.629988C24.5632 0.619988 24.5332 0.639988 24.5032 0.619988C24.5032 0.639988 24.5032 0.639988 24.5532 0.669988C24.5532 0.669988 24.5532 0.669988 24.5832 0.769988C24.6032 0.769988 24.6032 0.769988 24.6532 0.849988C24.6232 0.859988 24.5932 0.829988 24.5632 0.829988C24.5632 0.829988 24.5132 0.889988 24.5032 0.929988C24.5532 0.999988 24.5532 0.999988 24.5532 1.01999H24.5432C24.5032 0.999988 24.4032 0.949988 24.4032 0.949988C24.3732 0.989988 24.3732 0.989988 24.4832 1.04999V1.05999C24.4832 1.05999 24.3932 1.11999 24.3332 0.969988L24.2932 0.879988C24.2732 0.859988 24.2432 0.859988 24.2232 0.849988C24.1932 0.829988 24.1932 0.829988 24.1632 0.779988C24.2532 0.799988 24.3232 0.889988 24.4232 0.879988C24.5332 0.869988 24.5232 0.769988 24.5032 0.739988C24.4732 0.699988 24.4332 0.689988 24.4032 0.659988C24.3832 0.669988 24.3832 0.669988 24.3732 0.659988L24.0932 0.559988C24.0932 0.539988 24.0932 0.539988 24.0632 0.519988C24.0532 0.529988 24.0532 0.529988 24.0532 0.549988L24.0432 0.559988C23.9832 0.549988 23.9832 0.549988 23.9532 0.529988C23.9732 0.519988 23.9932 0.509988 24.0132 0.489988C23.9932 0.439988 23.9532 0.429988 23.8932 0.469988C23.8932 0.439988 23.8932 0.439988 23.8932 0.429988C23.8532 0.399988 23.8432 0.439988 23.8432 0.459988C23.8332 0.459988 23.8332 0.459988 23.8132 0.449988C23.8032 0.469988 23.8032 0.469988 23.7932 0.479988C23.7932 0.459988 23.8032 0.429988 23.8032 0.409988C23.7632 0.429988 23.7432 0.459988 23.6932 0.459988C23.6732 0.499988 23.6732 0.499988 23.6432 0.499988C23.6432 0.499988 23.6432 0.499988 23.6332 0.509988C23.6332 0.519988 23.6332 0.529988 23.6332 0.529988C23.6132 0.529988 23.5832 0.519988 23.5632 0.529988C23.5632 0.579988 23.5632 0.579988 23.5432 0.589988C23.5132 0.589988 23.5132 0.599988 23.4932 0.609988C23.4932 0.619988 23.5032 0.639988 23.4932 0.649988C23.4932 0.649988 23.4832 0.649988 23.4832 0.639988C23.4832 0.629988 23.4832 0.619988 23.4832 0.619988C23.4532 0.609988 23.4432 0.619988 23.4232 0.669988C23.4232 0.679988 23.4332 0.689988 23.4332 0.689988C23.3532 0.719988 23.3532 0.719988 23.3432 0.769988C23.3432 0.769988 23.3432 0.769988 23.4632 0.709988C23.4832 0.739988 23.4032 0.839988 23.4032 0.839988C23.4132 0.909988 23.3532 0.959988 23.3332 1.01999C23.3132 1.02999 23.3132 1.02999 23.3032 1.03999C23.3132 1.03999 23.3232 1.04999 23.3232 1.04999L23.2632 1.14999C23.2032 1.15999 23.1932 1.15999 23.1832 1.21999C23.1432 1.23999 23.0932 1.24999 23.0432 1.26999V1.27999C23.0432 1.27999 23.0432 1.27999 23.0532 1.32999H23.0632C23.0632 1.34999 23.0632 1.34999 23.0432 1.38999C23.0532 1.41999 23.0832 1.42999 23.1032 1.44999H23.1132C23.1032 1.46999 23.0832 1.47999 23.0732 1.49999C23.0832 1.52999 23.1032 1.52999 23.1132 1.53999V1.54999C23.0532 1.65999 23.1932 1.65999 23.1932 1.65999C23.2832 1.65999 23.3432 1.61999 23.3732 1.52999C23.3732 1.52999 23.3732 1.52999 23.4232 1.62999C23.4432 1.66999 23.4432 1.70999 23.4732 1.73999C23.4932 1.75999 23.4932 1.76999 23.4932 1.77999C23.4932 1.77999 23.4932 1.77999 23.5132 1.77999C23.5132 1.78999 23.5032 1.79999 23.5032 1.79999C23.5032 1.80999 23.5132 1.81999 23.5232 1.82999C23.5232 1.83999 23.5232 1.84999 23.5232 1.84999C23.5232 1.84999 23.5432 1.85999 23.5632 1.85999C23.5832 1.85999 23.5832 1.84999 23.6032 1.82999C23.6132 1.80999 23.6132 1.80999 23.6332 1.80999C23.6432 1.80999 23.6532 1.80999 23.6632 1.80999C23.6632 1.80999 23.6732 1.80999 23.6832 1.80999C23.6832 1.80999 23.6932 1.79999 23.7032 1.77999C23.7032 1.77999 23.7032 1.76999 23.7032 1.73999V1.74999C23.7032 1.70999 23.6732 1.65999 23.6932 1.61999C23.7132 1.56999 23.7932 1.56999 23.7932 1.50999C23.7932 1.50999 23.7932 1.44999 23.7132 1.41999C23.6932 1.40999 23.6932 1.40999 23.6832 1.25999C23.8032 1.13999 23.8032 1.13999 23.8232 1.07999C23.7832 1.03999 23.8232 0.959988 23.8632 0.959988C23.8632 0.959988 23.9632 0.959988 23.9632 0.989988C23.9632 1.00999 23.8832 1.17999 23.8832 1.17999C23.8732 1.18999 23.8532 1.18999 23.8332 1.20999C23.8432 1.39999 23.8832 1.42999 23.9732 1.46999C23.9832 1.46999 24.2332 1.42999 24.2332 1.42999C24.2332 1.43999 24.2332 1.43999 24.2332 1.44999C24.2532 1.45999 24.2732 1.45999 24.2932 1.46999V1.47999L24.2432 1.49999C24.2332 1.50999 24.2332 1.50999 24.2132 1.53999C24.1532 1.53999 24.0832 1.52999 24.0232 1.53999C24.0132 1.52999 24.0132 1.54999 24.0032 1.55999C23.9532 1.54999 23.9532 1.54999 23.9432 1.55999C23.9432 1.59999 23.9532 1.64999 23.9532 1.64999L24.0532 1.60999H24.0632C24.0632 1.66999 24.0732 1.69999 24.0632 1.71999C24.0532 1.71999 24.0432 1.72999 24.0432 1.72999C24.0232 1.71999 24.0132 1.66999 23.9832 1.67999C23.9432 1.67999 23.9532 1.71999 23.9332 1.73999V1.74999C23.9332 1.79999 23.9632 1.82999 23.9632 1.87999C23.9432 1.89999 23.9432 1.89999 23.9032 1.90999C23.8832 1.96999 23.8132 1.91999 23.7732 1.92999C23.7132 1.93999 23.6632 1.98999 23.6032 2.01999C23.5832 2.00999 23.5832 2.00999 23.5632 1.93999C23.5232 1.94999 23.4532 1.99999 23.4532 1.99999C23.4432 1.98999 23.4432 1.97999 23.4332 1.96999C23.3832 1.95999 23.3732 1.95999 23.3432 1.90999L23.3532 1.89999C23.4732 1.95999 23.4732 1.95999 23.5032 1.90999C23.4932 1.88999 23.4932 1.88999 23.5032 1.84999C23.4432 1.80999 23.4332 1.86999 23.4332 1.87999C23.4432 1.88999 23.4532 1.89999 23.4632 1.89999C23.4632 1.89999 23.4632 1.90999 23.4632 1.91999C23.4132 1.92999 23.3832 1.85999 23.4032 1.83999C23.4132 1.82999 23.4232 1.81999 23.4332 1.80999C23.4232 1.79999 23.4032 1.78999 23.3832 1.77999C23.3832 1.77999 23.3832 1.76999 23.3832 1.75999C23.3832 1.74999 23.3932 1.72999 23.3932 1.70999C23.3932 1.69999 23.3932 1.68999 23.3832 1.67999C23.3732 1.67999 23.3632 1.68999 23.3332 1.70999C23.3332 1.73999 23.3132 1.73999 23.2932 1.72999C23.2832 1.71999 23.2732 1.73999 23.2632 1.74999C23.2632 1.75999 23.2632 1.75999 23.2632 1.76999C23.2632 1.76999 23.2732 1.76999 23.2832 1.76999V1.78999L23.2732 1.79999C23.2832 1.82999 23.2832 1.82999 23.2632 1.86999C23.2832 1.88999 23.2832 1.88999 23.3032 1.89999C23.3032 1.92999 23.3032 1.92999 23.3232 1.95999C23.3132 1.96999 23.3032 1.96999 23.2932 1.96999C23.3032 1.97999 23.3032 1.97999 23.3232 2.00999C23.2932 2.02999 23.2932 2.02999 23.2832 2.03999C23.2632 2.01999 23.1332 2.04999 23.0832 2.08999C23.0032 2.16999 22.9732 2.29999 22.8432 2.33999C22.8432 2.36999 22.8432 2.36999 22.8232 2.37999C22.7932 2.37999 22.7632 2.35999 22.7332 2.34999C22.7232 2.36999 22.7232 2.36999 22.7532 2.42999C22.6932 2.46999 22.6232 2.39999 22.5632 2.45999C22.5632 2.46999 22.5732 2.48999 22.5632 2.49999L22.5732 2.50999C22.6232 2.50999 22.6632 2.55999 22.7132 2.52999C22.7132 2.61999 22.7132 2.61999 22.7632 2.62999C22.7332 2.84999 22.7332 2.84999 22.5932 2.84999C22.2932 2.84999 22.2932 2.84999 22.2732 2.87999C22.3032 2.93999 22.3032 2.94999 22.3032 3.02999C22.3032 3.09999 22.2432 3.13999 22.2332 3.20999C22.2232 3.26999 22.3232 3.32999 22.2632 3.37999C22.3032 3.37999 22.3432 3.34999 22.3832 3.35999C22.4232 3.36999 22.4232 3.43999 22.4732 3.43999C22.4732 3.43999 22.7132 3.36999 22.7232 3.34999C22.7632 3.33999 22.7632 3.33999 22.8132 3.24999C22.8232 3.24999 22.8332 3.23999 22.8432 3.23999C22.8332 3.20999 22.8332 3.20999 22.8132 3.18999C22.8132 3.13999 22.8532 3.08999 22.9032 3.04999C22.9232 3.01999 22.9632 3.02999 22.9932 3.00999C23.0132 2.97999 22.9932 2.94999 23.0032 2.91999C23.0332 2.84999 23.0332 2.84999 23.1332 2.84999C23.1532 2.86999 23.1632 2.87999 23.2032 2.89999C23.2632 2.87999 23.2632 2.78999 23.3432 2.78999C23.3832 2.78999 23.3832 2.78999 23.4732 2.88999C23.6232 3.06999 23.7232 3.07999 23.7432 3.07999C23.7532 3.11999 23.7532 3.11999 23.7732 3.13999H23.7832C23.8532 3.17999 23.7732 3.25999 23.8132 3.31999C23.8332 3.31999 23.9032 3.20999 23.8732 3.17999C23.8632 3.16999 23.8332 3.13999 23.8832 3.10999C23.9232 3.11999 23.9232 3.11999 23.9532 3.15999H23.9632C23.9732 3.13999 23.9732 3.13999 23.9632 3.10999C23.9032 3.09999 23.8032 3.01999 23.8032 3.01999C23.8132 3.00999 23.8232 2.99999 23.8232 2.98999C23.6932 2.93999 23.6032 2.90999 23.5632 2.76999C23.5632 2.76999 23.5732 2.75999 23.5732 2.74999C23.5532 2.65999 23.6332 2.68999 23.6332 2.68999C23.6532 2.70999 23.6432 2.74999 23.6532 2.76999C23.6632 2.75999 23.6732 2.74999 23.6832 2.74999C23.7432 2.77999 23.7632 2.86999 23.8432 2.86999C23.8432 2.86999 23.8532 2.87999 23.8532 2.88999L23.8632 2.89999C23.8932 2.94999 23.9632 2.93999 23.9932 2.98999C24.0332 3.02999 23.9732 3.11999 24.0432 3.14999H24.0532C24.1132 3.25999 24.1432 3.27999 24.1532 3.28999C24.1432 3.40999 24.2132 3.42999 24.2532 3.42999C24.2632 3.44999 24.2632 3.44999 24.2632 3.47999C24.2632 3.47999 24.2732 3.47999 24.2732 3.48999C24.2832 3.46999 24.2932 3.44999 24.2732 3.40999C24.2932 3.39999 24.3032 3.38999 24.3232 3.38999C24.3032 3.37999 24.2932 3.36999 24.2732 3.34999C24.2732 3.34999 24.2732 3.33999 24.2732 3.32999C24.3032 3.33999 24.3032 3.33999 24.3232 3.33999C24.3232 3.32999 24.3232 3.30999 24.3132 3.30999C24.3332 3.31999 24.3532 3.33999 24.3732 3.34999C24.3532 3.24999 24.2332 3.22999 24.2132 3.12999C24.2332 3.12999 24.2532 3.14999 24.2732 3.16999C24.2832 3.15999 24.3032 3.15999 24.3132 3.13999C24.3032 3.12999 24.3032 3.11999 24.2932 3.10999C24.3432 3.08999 24.3932 3.10999 24.4432 3.11999C24.4432 3.11999 24.4332 3.12999 24.4332 3.13999L24.5832 3.07999C24.5532 3.03999 24.5032 3.01999 24.4932 2.96999C24.4832 2.89999 24.5332 2.84999 24.5332 2.77999C24.5432 2.77999 24.5632 2.77999 24.5732 2.77999C24.5732 2.77999 24.5732 2.77999 24.5732 2.71999C24.6132 2.69999 24.6232 2.65999 24.6432 2.62999C24.6532 2.62999 24.6532 2.62999 24.6932 2.62999C24.6932 2.63999 24.6832 2.64999 24.6832 2.65999C24.7132 2.67999 24.7532 2.65999 24.7832 2.67999V2.68999C24.7432 2.72999 24.7432 2.72999 24.7332 2.73999L24.7432 2.74999C24.7532 2.74999 24.7632 2.74999 24.7732 2.74999C24.7932 2.84999 24.8232 2.82999 24.9432 2.74999C24.9432 2.73999 24.9432 2.72999 24.9532 2.71999C24.9232 2.71999 24.8932 2.72999 24.8632 2.72999C24.7932 2.60999 25.0332 2.57999 25.0532 2.56999C25.0432 2.60999 25.0032 2.62999 25.0032 2.62999C25.0032 2.62999 25.0032 2.63999 25.0032 2.64999C25.0132 2.64999 25.0132 2.64999 25.0232 2.65999C24.9932 2.65999 24.9932 2.65999 24.9932 2.65999L24.9832 2.66999H24.9632C24.9632 2.67999 24.9532 2.68999 24.9532 2.68999C24.9832 2.68999 24.9832 2.69999 24.9832 2.71999C25.0032 2.72999 25.0332 2.73999 25.0632 2.74999C25.2432 2.88999 25.2432 2.88999 25.2732 2.92999C25.2732 2.93999 25.2832 2.95999 25.2732 2.96999C25.2332 3.03999 25.2232 3.04999 25.1732 3.00999C25.1532 3.01999 25.1232 3.02999 25.0932 3.02999L24.8632 2.92999C24.7432 2.93999 24.7332 2.95999 24.7132 3.00999C24.5932 3.00999 24.5932 3.00999 24.5732 3.02999C24.5832 3.03999 24.5932 3.03999 24.6032 3.04999L24.6132 3.05999C24.6032 3.05999 24.5832 3.05999 24.5732 3.06999C24.5732 3.07999 24.5732 3.07999 24.5732 3.08999C24.5632 3.09999 24.5332 3.08999 24.5232 3.08999C24.5032 3.08999 24.4832 3.08999 24.4532 3.08999C24.4232 3.09999 24.4232 3.10999 24.4132 3.13999V3.16999C24.4232 3.16999 24.4432 3.16999 24.4532 3.17999C24.4632 3.19999 24.4632 3.19999 24.4232 3.25999C24.4532 3.29999 24.5432 3.39999 24.5432 3.39999C24.5832 3.38999 24.5832 3.38999 24.6032 3.39999C24.6032 3.40999 24.6032 3.41999 24.6032 3.41999C24.6432 3.43999 24.6532 3.42999 24.7032 3.41999C24.7032 3.40999 24.7132 3.38999 24.7232 3.37999C24.7732 3.37999 24.7832 3.44999 24.8332 3.44999C24.8832 3.44999 24.9032 3.42999 24.9332 3.37999C24.9632 3.37999 24.9632 3.37999 25.0032 3.38999C25.0132 3.37999 25.0232 3.36999 25.0332 3.36999C24.9832 3.48999 25.0532 3.63999 24.9532 3.74999C24.8732 3.84999 24.7632 3.73999 24.6732 3.78999C24.6132 3.81999 24.2632 3.68999 24.2632 3.68999C24.2532 3.68999 24.0732 3.59999 24.0932 3.75999C24.1032 3.83999 24.0732 3.87999 24.0332 3.89999C24.0232 3.89999 24.0232 3.89999 23.8332 3.76999C23.8332 3.73999 23.8232 3.68999 23.5832 3.63999C23.5432 3.62999 23.4832 3.66999 23.4532 3.60999C23.4232 3.55999 23.4932 3.52999 23.5132 3.48999C23.4832 3.43999 23.5132 3.37999 23.5132 3.32999C23.5032 3.32999 23.5032 3.32999 23.4932 3.32999C23.5032 3.34999 23.4832 3.35999 23.4732 3.36999C23.4732 3.36999 23.1032 3.34999 22.9932 3.36999C22.8232 3.38999 22.6632 3.62999 22.4832 3.45999C22.4732 3.45999 22.4532 3.46999 22.4432 3.46999C22.4432 3.49999 22.4432 3.49999 22.4232 3.56999C22.2932 3.62999 22.2332 3.70999 22.2332 3.70999C22.2432 3.71999 22.2432 3.73999 22.2432 3.74999C22.1532 3.80999 22.1932 3.92999 22.1332 3.99999C22.0632 4.07999 21.9432 4.10999 21.8732 4.19999C21.8432 4.23999 21.8432 4.28999 21.8232 4.32999C21.8032 4.37999 21.7332 4.39999 21.7232 4.45999C21.7132 4.52999 21.7832 4.58999 21.7632 4.65999C21.7432 4.76999 21.8132 4.86999 21.7732 4.96999C21.7232 4.97999 21.7132 4.98999 21.6932 5.03999C21.7132 5.05999 21.7332 5.06999 21.7532 5.08999V5.09999C21.7432 5.16999 21.7432 5.16999 21.7732 5.21999C21.8032 5.27999 21.8832 5.30999 21.9332 5.35999C21.9832 5.41999 21.9832 5.49999 22.0332 5.55999L22.2732 5.72999C22.3032 5.74999 22.3132 5.74999 22.3532 5.74999C22.4232 5.74999 22.4832 5.69999 22.5532 5.68999C22.6232 5.67999 22.6932 5.71999 22.7732 5.70999C22.7932 5.70999 22.8432 5.69999 22.8632 5.68999C22.9532 5.61999 23.0632 5.60999 23.0632 5.60999C23.1432 5.62999 23.1332 5.73999 23.2132 5.74999C23.2832 5.76999 23.3432 5.68999 23.4132 5.72999C23.4132 5.72999 23.4632 5.76999 23.4832 5.81999C23.4232 5.92999 23.4232 5.92999 23.4032 6.05999C23.3932 6.06999 23.3832 6.07999 23.3732 6.08999C23.4332 6.20999 23.4332 6.20999 23.5432 6.29999L23.6532 6.53999L23.6632 6.77999C23.6432 6.86999 23.5532 6.92999 23.5232 7.00999C23.5132 7.03999 23.4932 7.10999 23.5032 7.12999C23.5332 7.20999 23.6032 7.24999 23.6332 7.32999C23.6732 7.42999 23.6132 7.52999 23.6432 7.62999C23.6432 7.62999 23.6732 7.72999 23.7232 7.78999C23.7832 7.85999 23.7632 7.94999 23.7932 8.01999C23.7832 8.02999 23.7732 8.02999 23.7632 8.03999C23.7632 8.06999 23.7632 8.09999 23.7632 8.13999L23.7732 8.14999C23.7832 8.14999 23.7832 8.14999 23.7932 8.14999C23.7932 8.14999 24.1032 8.15999 24.2832 8.03999C24.3232 8.00999 24.5232 7.78999 24.5232 7.77999L24.7932 7.43999C24.7732 7.27999 24.7732 7.27999 25.0932 7.09999C25.1632 7.05999 25.1632 7.05999 25.1832 6.96999C25.1832 6.95999 25.1832 6.95999 25.1832 6.94999C25.1932 6.89999 25.1832 6.84999 25.1932 6.79999C25.1932 6.76999 25.2132 6.74999 25.2132 6.71999C25.2132 6.71999 25.2132 6.69999 25.2032 6.68999C25.1932 6.66999 25.1932 6.66999 25.1932 6.62999C25.2032 6.45999 25.2032 6.45999 25.2032 6.44999M24.4132 1.42999C24.4132 1.43999 24.4032 1.43999 24.3932 1.43999C24.3832 1.44999 24.3832 1.45999 24.3732 1.45999C24.3632 1.45999 24.3632 1.45999 24.3632 1.45999C24.3632 1.45999 24.3532 1.45999 24.3432 1.44999C24.3332 1.43999 24.3332 1.42999 24.3332 1.41999C24.3332 1.40999 24.3332 1.40999 24.3232 1.39999C24.3232 1.38999 24.2932 1.35999 24.2932 1.35999C24.2932 1.35999 24.2932 1.35999 24.2932 1.34999C24.2832 1.32999 24.3032 1.29999 24.3032 1.29999C24.3032 1.29999 24.3132 1.28999 24.3232 1.28999C24.3332 1.29999 24.3332 1.29999 24.3532 1.30999C24.3632 1.31999 24.3732 1.31999 24.3932 1.34999C24.4132 1.37999 24.4132 1.41999 24.4132 1.42999ZM24.5332 1.35999C24.5132 1.35999 24.5032 1.35999 24.5032 1.34999C24.5032 1.33999 24.4932 1.33999 24.4832 1.32999C24.4732 1.31999 24.4632 1.30999 24.4532 1.29999C24.4532 1.29999 24.4532 1.29999 24.4532 1.28999C24.4532 1.27999 24.4432 1.26999 24.4432 1.26999C24.4432 1.25999 24.4332 1.25999 24.4332 1.24999C24.4332 1.24999 24.4332 1.24999 24.4332 1.23999C24.4432 1.23999 24.4432 1.24999 24.4432 1.24999C24.4532 1.24999 24.4532 1.24999 24.4532 1.24999C24.4532 1.24999 24.4932 1.24999 24.4532 1.20999C24.4432 1.19999 24.4332 1.18999 24.4232 1.17999C24.4232 1.16999 24.4732 1.15999 24.5032 1.22999C24.5032 1.23999 24.5032 1.24999 24.5332 1.26999C24.5432 1.27999 24.5532 1.28999 24.5632 1.31999C24.5432 1.34999 24.5332 1.35999 24.5332 1.35999ZM26.0632 2.59999C26.0732 2.59999 26.0732 2.59999 26.0632 2.59999C26.0832 2.59999 26.0832 2.59999 26.0832 2.58999C26.0832 2.57999 26.0932 2.57999 26.0932 2.56999C26.0932 2.55999 26.1032 2.55999 26.1132 2.55999C26.1232 2.54999 26.1232 2.53999 26.1232 2.52999C26.1232 2.51999 26.1232 2.50999 26.1232 2.50999C26.1232 2.50999 26.1232 2.50999 26.1232 2.51999C26.1232 2.52999 26.1232 2.54999 26.1232 2.55999C26.1232 2.56999 26.1432 2.57999 26.1432 2.59999C26.1432 2.59999 26.1432 2.60999 26.1432 2.61999C26.1532 2.69999 26.1532 2.69999 26.1532 2.69999C26.1532 2.69999 26.1532 2.70999 26.1432 2.70999L26.1032 2.71999C26.0932 2.71999 26.0832 2.70999 26.0732 2.66999C26.0532 2.60999 26.0532 2.60999 26.0632 2.59999ZM25.5132 2.63999C25.5232 2.61999 25.5432 2.60999 25.5532 2.59999C25.5632 2.58999 25.5732 2.56999 25.5832 2.54999C25.5832 2.54999 25.6532 2.49999 25.6532 2.50999C25.6632 2.50999 25.6632 2.50999 25.6732 2.51999C25.7432 2.51999 25.7432 2.51999 25.7432 2.51999C25.7432 2.51999 25.8132 2.62999 25.7732 2.65999C25.7432 2.67999 25.7232 2.63999 25.6932 2.65999C25.6932 2.67999 25.7332 2.70999 25.7032 2.71999H25.6932H25.6832C25.7332 2.81999 25.7432 2.81999 25.7632 2.83999C25.8032 2.85999 25.8232 2.87999 25.8232 2.87999C25.8332 2.89999 25.8232 2.92999 25.8332 2.94999C25.8432 2.96999 25.8632 2.98999 25.8632 3.00999C25.8632 3.01999 25.8632 3.01999 25.8732 3.03999C25.8732 3.04999 25.8832 3.07999 25.9032 3.11999C25.9132 3.12999 25.9132 3.12999 25.9132 3.13999C25.9332 3.14999 25.9332 3.15999 25.9432 3.16999C25.9432 3.17999 25.9332 3.17999 25.9232 3.18999C25.9732 3.24999 25.9832 3.31999 26.0232 3.37999C26.0132 3.37999 25.8732 3.38999 25.8632 3.38999L25.7432 3.32999C25.7032 3.29999 25.6932 3.15999 25.7132 3.10999C25.7232 3.08999 25.7432 3.08999 25.7532 3.06999C25.7432 3.05999 25.7432 3.05999 25.7032 3.03999C25.6932 3.03999 25.6932 3.03999 25.6832 3.02999C25.6632 3.00999 25.6632 2.97999 25.6432 2.94999C25.6232 2.92999 25.6032 2.92999 25.5932 2.90999C25.5732 2.87999 25.5732 2.82999 25.5532 2.79999C25.5332 2.77999 25.5032 2.77999 25.4932 2.73999C25.4932 2.69999 25.5032 2.66999 25.5132 2.63999Z" fill="#D1D600"/>
<path d="M22.3132 1.99999C22.3132 2.00999 22.3132 2.00999 22.3032 2.01999C22.2832 2.02999 22.2932 2.04999 22.2932 2.04999C22.2932 2.05999 22.2932 2.05999 22.3032 2.05999C22.3132 2.05999 22.3232 2.06999 22.3232 2.07999H22.3132C22.3032 2.07999 22.2532 2.16999 22.2532 2.16999C22.2532 2.16999 22.2632 2.19999 22.2832 2.20999C22.2932 2.20999 22.3032 2.21999 22.3232 2.21999C22.3332 2.21999 22.3432 2.20999 22.3632 2.19999C22.3932 2.16999 22.4132 2.16999 22.4332 2.15999C22.4432 2.15999 22.4432 2.15999 22.4532 2.15999C22.4632 2.15999 22.4932 2.15999 22.5032 2.15999C22.5132 2.14999 22.5032 2.13999 22.5032 2.11999C22.5032 2.10999 22.5132 2.09999 22.5132 2.08999C22.5132 2.08999 22.5132 2.04999 22.5032 2.02999C22.5032 2.02999 22.5032 2.02999 22.5032 2.01999C22.5232 2.01999 22.5432 2.00999 22.5432 1.99999C22.5532 1.97999 22.5232 1.91999 22.5232 1.91999C22.5132 1.90999 22.4932 1.89999 22.4832 1.89999C22.4632 1.89999 22.4532 1.91999 22.4332 1.89999C22.4232 1.89999 22.4132 1.91999 22.4132 1.93999C22.4132 1.96999 22.4132 1.96999 22.3932 1.97999C22.3832 1.97999 22.3732 1.98999 22.3532 1.99999H22.3432C22.3432 1.98999 22.3332 1.98999 22.3132 1.99999C22.3032 2.00999 22.3032 2.00999 22.3032 2.00999C22.3132 1.98999 22.3132 1.98999 22.3132 1.99999Z" fill="#D1D600"/>
<path d="M22.4732 1.73999C22.4932 1.73999 22.5032 1.71999 22.5132 1.71999C22.5132 1.73999 22.5032 1.75999 22.5132 1.76999C22.5132 1.77999 22.5232 1.77999 22.5332 1.78999C22.5032 1.82999 22.5132 1.83999 22.5132 1.84999C22.5232 1.84999 22.5332 1.82999 22.5432 1.83999C22.5332 1.86999 22.5432 1.86999 22.5432 1.87999C22.5832 1.83999 22.5832 1.83999 22.5932 1.84999C22.5632 1.90999 22.5632 1.90999 22.5732 1.91999C22.5832 1.94999 22.6132 1.91999 22.6332 1.92999C22.6332 1.96999 22.6432 1.97999 22.6432 1.97999C22.6532 1.98999 22.6632 1.98999 22.6732 1.99999C22.6732 2.00999 22.6532 2.07999 22.6132 2.07999C22.5832 2.07999 22.5732 2.09999 22.5732 2.09999C22.5632 2.10999 22.5732 2.11999 22.5832 2.11999C22.5932 2.12999 22.6032 2.13999 22.5932 2.14999C22.5732 2.16999 22.5232 2.16999 22.5332 2.19999C22.5532 2.19999 22.5832 2.17999 22.6032 2.19999C22.6132 2.21999 22.6232 2.21999 22.6632 2.20999C22.6832 2.19999 22.6832 2.19999 22.6932 2.19999C22.6932 2.20999 22.6632 2.22999 22.6432 2.22999C22.5632 2.23999 22.5032 2.30999 22.5032 2.30999C22.5032 2.31999 22.5132 2.32999 22.5232 2.32999C22.5532 2.32999 22.5632 2.29999 22.5832 2.28999C22.6032 2.27999 22.6132 2.29999 22.6332 2.28999C22.6332 2.28999 22.6332 2.28999 22.6432 2.28999L22.6832 2.26999C22.7132 2.26999 22.7432 2.28999 22.7732 2.28999C22.7732 2.27999 22.7532 2.25999 22.7732 2.24999C22.7932 2.23999 22.8232 2.25999 22.8432 2.24999C22.9032 2.25999 22.9032 2.25999 22.9232 2.22999C22.9232 2.22999 22.9232 2.22999 22.9232 2.21999C22.9132 2.20999 22.8932 2.20999 22.8732 2.19999C22.9932 2.05999 22.8632 2.07999 22.8632 2.07999C22.8532 2.08999 22.8432 2.07999 22.8332 2.06999C22.8332 2.05999 22.8432 2.04999 22.8332 2.03999C22.8232 2.01999 22.8132 1.99999 22.8032 1.97999C22.8032 1.96999 22.8032 1.96999 22.7632 1.92999C22.7432 1.90999 22.7432 1.88999 22.7332 1.86999C22.7132 1.82999 22.7032 1.82999 22.6932 1.82999C22.6832 1.82999 22.6732 1.82999 22.6632 1.81999C22.6632 1.76999 22.7432 1.75999 22.7232 1.70999C22.7132 1.65999 22.6432 1.70999 22.6232 1.67999C22.6332 1.63999 22.7032 1.60999 22.6632 1.57999C22.6432 1.58999 22.6532 1.61999 22.6332 1.61999H22.5832C22.5632 1.63999 22.5732 1.66999 22.5632 1.68999C22.5432 1.70999 22.5332 1.72999 22.5132 1.69999C22.5032 1.66999 22.5332 1.64999 22.5332 1.62999C22.5232 1.61999 22.4932 1.63999 22.4832 1.65999C22.4332 1.72999 22.4432 1.73999 22.4432 1.74999C22.4632 1.73999 22.4732 1.73999 22.4732 1.73999Z" fill="#D1D600"/>
<path d="M28.0032 6.42C28.0132 6.41 28.0232 6.38999 28.0432 6.31999C28.0832 6.21999 28.0732 6.18 28.0732 6.08C28.0732 6.06 28.0732 6.02999 28.0832 6.00999C28.0832 6.00999 28.0832 5.99999 28.0632 5.97999C28.0432 5.94999 28.0532 5.9 28.0232 5.87V5.85999C28.0232 5.85999 27.9932 5.68999 27.9832 5.67999C27.9732 5.68999 27.9732 5.69 27.9632 5.7C27.9332 5.68 27.9532 5.64 27.9232 5.62C27.9232 5.62 27.8832 5.66 27.8832 5.67L27.9232 5.80999C27.9532 5.89999 27.9532 5.9 27.9532 5.91C27.9532 5.94 27.9432 5.97 27.9432 6C27.9432 6.03 27.9632 6.05999 27.9632 6.09999C27.9632 6.12999 27.9432 6.14999 27.9332 6.17999C27.9332 6.18999 27.9232 6.21 27.9432 6.25C27.9632 6.28 27.9632 6.42 27.9632 6.42C27.9632 6.44 27.9632 6.44 28.0032 6.42Z" fill="#D1D600"/>
<path d="M23.6632 9.46C21.0532 9.46 18.9332 7.34 18.9332 4.73C18.9332 2.12 21.0532 0 23.6632 0C26.2732 0 28.3932 2.12 28.3932 4.73C28.3932 7.34 26.2632 9.46 23.6632 9.46ZM23.6632 0.11C21.1132 0.11 19.0432 2.18 19.0432 4.73C19.0432 7.28 21.1132 9.35 23.6632 9.35C26.2032 9.35 28.2832 7.28 28.2832 4.73C28.2732 2.18 26.2032 0.11 23.6632 0.11Z" fill="#D1D600"/>
<path d="M19.0332 37.73C18.9132 37.6 18.9532 37.18 19.0332 37.1C19.6232 37.06 20.4132 36.94 20.9232 36.81C21.9632 36.6 22.1332 35.97 22.2132 35.01C22.3032 34 22.3432 26.78 22.3432 23.3C22.3432 20.17 22.3432 16.91 22.2532 14.98C22.1232 13.97 22.1732 13.1 21.2032 12.85C20.7432 12.73 19.9432 12.6 18.9432 12.48C18.8232 12.39 18.9032 11.94 18.9832 11.86H27.8532C27.9432 11.98 27.9832 12.36 27.8932 12.48C27.2632 12.57 26.5532 12.65 26.1732 12.73C25.2432 12.98 25.0832 13.6 25.0032 14.9C24.9232 16.66 24.8732 20.84 24.8732 24.48C24.8732 28.41 24.9232 33.05 24.9532 34.43C25.0432 35.72 25.1632 36.43 26.2132 36.72C26.8032 36.89 27.5532 37.01 28.3532 37.1C28.4732 37.23 28.3932 37.64 28.3132 37.73H19.0332Z" fill="#D1D600"/>
<path d="M50.2632 37.73C48.7932 37.81 45.8632 37.6 44.6132 37.06C44.0232 36.81 43.4432 36.39 42.6932 35.51C41.0932 33.8 38.2132 28.86 36.5332 26.61C36.1932 26.1 35.8632 25.94 35.5732 25.94C35.1132 25.92 32.7032 25.94 31.9432 25.97V24.8C33.3532 24.89 36.6932 24.91 37.4932 24.61C38.9232 24.11 40.8432 22.64 40.8432 19.05C40.8432 18.16 40.7232 17.38 40.5032 16.66C39.9432 14.09 37.1532 11.91 30.9532 11.91C32.2232 11.9 36.0532 11.9 36.4932 11.9C41.2232 11.9 43.5232 14.82 43.5232 18.21C43.5232 21.9 41.0132 23.86 38.6732 24.9C38.5832 24.99 38.5832 25.07 38.6332 25.11C40.2632 27.74 43.7432 32.81 45.6632 34.72C47.6732 36.73 48.4232 36.94 50.3532 37.11C50.3932 37.19 50.3432 37.69 50.2632 37.73Z" fill="white"/>
<path d="M0.083171 11.86C-0.00682905 11.94 -0.046829 12.4 0.083171 12.48C0.623171 12.57 1.71317 12.69 2.17317 12.85C3.10317 13.19 3.10317 14.02 3.13317 15.11C3.21317 17.24 3.09317 28.28 3.38317 30.74C3.97317 35.8 7.23317 37.79 13.0932 37.79C13.6332 37.79 14.1832 37.76 14.7332 37.7C10.0232 37.6 6.21317 34.43 6.00317 29.76C5.96317 29.36 5.92317 28.95 5.88317 28.48C5.80317 26.27 5.75317 18.61 5.88317 15.19C5.97317 13.43 6.17317 13.1 6.89317 12.85C7.39317 12.68 7.81317 12.64 8.65317 12.48C8.73317 12.4 8.73317 11.94 8.65317 11.86H0.083171Z" fill="white"/>
<path d="M23.6632 0.13C24.8832 0.13 26.0232 0.6 26.9032 1.44C27.7932 2.3 28.3032 3.46 28.3132 4.7C28.3332 5.94 27.8632 7.11 27.0032 8C26.5532 8.46 26.0332 8.81 25.4432 9.06C24.8732 9.3 24.2732 9.41 23.6532 9.41C22.4432 9.41 21.2932 8.95 20.4132 8.1C19.5232 7.24 19.0232 6.08 19.0032 4.84C18.9832 3.6 19.4532 2.43 20.3132 1.54C20.7632 1.08 21.2832 0.72 21.8732 0.48C22.4432 0.25 23.0432 0.13 23.6632 0.13ZM23.6632 0C22.4132 0 21.1732 0.48 20.2332 1.45C18.4032 3.34 18.4532 6.35 20.3432 8.18C21.2632 9.08 22.4632 9.52 23.6632 9.52C24.9032 9.52 26.1532 9.04 27.0932 8.07C28.9232 6.18 28.8832 3.17 26.9832 1.34C26.0532 0.45 24.8632 0 23.6632 0Z" fill="#D1D600"/>
</svg>
